<svg width="1200" height="400" viewBox="0 0 1200 400" fill="none" xmlns="http://www.w3.org/2000/svg">
<path d="M178.067 169.706C182.966 135.377 197.113 103.339 219.365 76.3422C238.411 53.2877 262.174 35.2749 289.095 23.4038L296.558 20.9746L289.095 208.482C289.095 208.482 290.194 222.232 284.7 226.357C281.678 228.832 270.278 222.966 270.278 222.966L177.518 181.44L178.067 169.706Z" fill="#00A3E0"/>
<path d="M330.022 11.1724C343.045 8.42138 356.344 7 369.78 7C408.528 7 445.81 18.6003 477.542 40.6087C504.231 59.0865 525.508 83.7084 539.724 112.503L543.438 121.49L372.623 208.973C372.623 208.973 350.153 224.012 338.46 218.51C329.701 215.942 330.022 182.746 330.022 182.746L317.778 15.1156L330.022 11.1724Z" fill="#20603D"/>
<path d="M368.601 391.553C355.16 391.553 341.856 390.128 328.827 387.371L319.331 383.741L328.827 318.488C328.827 318.488 328.506 309.068 331.029 306.77C333.552 304.473 340.847 309.344 340.847 309.344L460.627 367.198L450.718 372.85C425.257 385.12 397.319 391.553 368.601 391.553Z" fill="#FAD201"/>
<path d="M368.515 268.987C367.828 260.481 390.229 249.002 390.229 249.002L549.968 146.744L553.77 156.028C557.939 171.211 560 186.943 560 202.95C560 232.584 552.579 261.945 538.515 287.875C526.605 309.781 510.067 329.263 490.232 344.675L480.841 350.666L388.168 286.64C388.168 286.64 369.203 277.585 368.561 269.079L368.515 268.987Z" fill="#00A3E0"/>
<path d="M292.26 375.233C282.005 370.709 272.115 365.271 262.775 358.964C252.656 352.155 243.225 344.386 234.617 335.749L228.757 328.619L283.47 307.598C283.47 307.598 288.048 304.627 290.337 305.998C292.627 307.369 292.26 314.224 292.26 314.224L300.181 377.061L292.26 375.233Z" fill="#20603D"/>
<path d="M208.388 307.004C199.69 294.047 192.648 280.129 187.401 265.432C181.74 249.636 178.289 233.153 177 216.396L177.368 206.781L258.462 263.188C258.462 263.188 265.504 266.988 265.504 270.193C265.504 273.398 259.935 277.381 259.935 277.381L213.267 313.918L208.388 307.004Z" fill="#FAD201"/>
<path d="M627.856 122.868C619.672 122.868 612.149 120.967 605.288 117.164C598.509 113.361 593.095 108.071 589.044 101.292C585.076 94.4307 583.092 86.7427 583.092 78.228C583.092 69.7133 585.076 62.0667 589.044 55.288C593.095 48.5093 598.509 43.2187 605.288 39.416C612.149 35.6133 619.672 33.712 627.856 33.712C636.04 33.712 643.521 35.6133 650.3 39.416C657.161 43.2187 662.535 48.5093 666.42 55.288C670.388 62.0667 672.372 69.7133 672.372 78.228C672.372 86.7427 670.388 94.4307 666.42 101.292C662.452 108.071 657.079 113.361 650.3 117.164C643.521 120.967 636.04 122.868 627.856 122.868ZM627.856 103.524C634.8 103.524 640.339 101.209 644.472 96.58C648.688 91.9507 650.796 85.8333 650.796 78.228C650.796 70.54 648.688 64.4227 644.472 59.876C640.339 55.2467 634.8 52.932 627.856 52.932C620.829 52.932 615.208 55.2053 610.992 59.752C606.859 64.2987 604.792 70.4573 604.792 78.228C604.792 85.916 606.859 92.0747 610.992 96.704C615.208 101.251 620.829 103.524 627.856 103.524ZM705.372 62.604C707.439 59.38 710.291 56.776 713.928 54.792C717.566 52.808 721.823 51.816 726.7 51.816C732.404 51.816 737.571 53.2627 742.2 56.156C746.83 59.0493 750.467 63.1827 753.112 68.556C755.84 73.9293 757.204 80.1707 757.204 87.28C757.204 94.3893 755.84 100.672 753.112 106.128C750.467 111.501 746.83 115.676 742.2 118.652C737.571 121.545 732.404 122.992 726.7 122.992C721.906 122.992 717.648 122 713.928 120.016C710.291 118.032 707.439 115.469 705.372 112.328V154.984H684.168V52.808H705.372V62.604ZM735.628 87.28C735.628 81.9893 734.14 77.856 731.164 74.88C728.271 71.8213 724.675 70.292 720.376 70.292C716.16 70.292 712.564 71.8213 709.588 74.88C706.695 77.9387 705.248 82.1133 705.248 87.404C705.248 92.6947 706.695 96.8693 709.588 99.928C712.564 102.987 716.16 104.516 720.376 104.516C724.592 104.516 728.188 102.987 731.164 99.928C734.14 96.7867 735.628 92.5707 735.628 87.28ZM833.553 86.288C833.553 88.272 833.429 90.3387 833.181 92.488H785.193C785.523 96.7867 786.887 100.093 789.285 102.408C791.765 104.64 794.782 105.756 798.337 105.756C803.627 105.756 807.306 103.524 809.373 99.06H831.941C830.783 103.607 828.675 107.699 825.617 111.336C822.641 114.973 818.879 117.825 814.333 119.892C809.786 121.959 804.702 122.992 799.081 122.992C792.302 122.992 786.267 121.545 780.977 118.652C775.686 115.759 771.553 111.625 768.577 106.252C765.601 100.879 764.113 94.596 764.113 87.404C764.113 80.212 765.559 73.9293 768.453 68.556C771.429 63.1827 775.562 59.0493 780.853 56.156C786.143 53.2627 792.219 51.816 799.081 51.816C805.777 51.816 811.729 53.2213 816.937 56.032C822.145 58.8427 826.195 62.852 829.089 68.06C832.065 73.268 833.553 79.344 833.553 86.288ZM811.853 80.708C811.853 77.0707 810.613 74.1773 808.133 72.028C805.653 69.8787 802.553 68.804 798.833 68.804C795.278 68.804 792.261 69.8373 789.781 71.904C787.383 73.9707 785.895 76.9053 785.317 80.708H811.853ZM886.899 52.064C895 52.064 901.448 54.7093 906.243 60C911.12 65.208 913.559 72.4 913.559 81.576V122H892.479V84.428C892.479 79.7987 891.28 76.2027 888.883 73.64C886.485 71.0773 883.261 69.796 879.211 69.796C875.16 69.796 871.936 71.0773 869.539 73.64C867.141 76.2027 865.943 79.7987 865.943 84.428V122H844.739V52.808H865.943V61.984C868.092 58.9253 870.985 56.528 874.623 54.792C878.26 52.9733 882.352 52.064 886.899 52.064ZM618.184 242.868C611.819 242.868 606.115 241.835 601.072 239.768C596.029 237.701 591.979 234.643 588.92 230.592C585.944 226.541 584.373 221.664 584.208 215.96H606.776C607.107 219.184 608.223 221.664 610.124 223.4C612.025 225.053 614.505 225.88 617.564 225.88C620.705 225.88 623.185 225.177 625.004 223.772C626.823 222.284 627.732 220.259 627.732 217.696C627.732 215.547 626.988 213.769 625.5 212.364C624.095 210.959 622.317 209.801 620.168 208.892C618.101 207.983 615.125 206.949 611.24 205.792C605.619 204.056 601.031 202.32 597.476 200.584C593.921 198.848 590.863 196.285 588.3 192.896C585.737 189.507 584.456 185.084 584.456 179.628C584.456 171.527 587.391 165.203 593.26 160.656C599.129 156.027 606.776 153.712 616.2 153.712C625.789 153.712 633.519 156.027 639.388 160.656C645.257 165.203 648.399 171.568 648.812 179.752H625.872C625.707 176.941 624.673 174.751 622.772 173.18C620.871 171.527 618.432 170.7 615.456 170.7C612.893 170.7 610.827 171.403 609.256 172.808C607.685 174.131 606.9 176.073 606.9 178.636C606.9 181.447 608.223 183.637 610.868 185.208C613.513 186.779 617.647 188.473 623.268 190.292C628.889 192.193 633.436 194.012 636.908 195.748C640.463 197.484 643.521 200.005 646.084 203.312C648.647 206.619 649.928 210.876 649.928 216.084C649.928 221.044 648.647 225.549 646.084 229.6C643.604 233.651 639.967 236.875 635.172 239.272C630.377 241.669 624.715 242.868 618.184 242.868ZM694.473 242.992C687.694 242.992 681.577 241.545 676.121 238.652C670.748 235.759 666.49 231.625 663.349 226.252C660.29 220.879 658.761 214.596 658.761 207.404C658.761 200.295 660.332 194.053 663.473 188.68C666.614 183.224 670.913 179.049 676.369 176.156C681.825 173.263 687.942 171.816 694.721 171.816C701.5 171.816 707.617 173.263 713.073 176.156C718.529 179.049 722.828 183.224 725.969 188.68C729.11 194.053 730.681 200.295 730.681 207.404C730.681 214.513 729.069 220.796 725.845 226.252C722.704 231.625 718.364 235.759 712.825 238.652C707.369 241.545 701.252 242.992 694.473 242.992ZM694.473 224.64C698.524 224.64 701.954 223.152 704.765 220.176C707.658 217.2 709.105 212.943 709.105 207.404C709.105 201.865 707.7 197.608 704.889 194.632C702.161 191.656 698.772 190.168 694.721 190.168C690.588 190.168 687.157 191.656 684.429 194.632C681.701 197.525 680.337 201.783 680.337 207.404C680.337 212.943 681.66 217.2 684.305 220.176C687.033 223.152 690.422 224.64 694.473 224.64ZM810.254 172.808V242H789.05V232.576C786.901 235.635 783.966 238.115 780.246 240.016C776.609 241.835 772.558 242.744 768.094 242.744C762.804 242.744 758.133 241.587 754.082 239.272C750.032 236.875 746.89 233.444 744.658 228.98C742.426 224.516 741.31 219.267 741.31 213.232V172.808H762.39V210.38C762.39 215.009 763.589 218.605 765.986 221.168C768.384 223.731 771.608 225.012 775.658 225.012C779.792 225.012 783.057 223.731 785.454 221.168C787.852 218.605 789.05 215.009 789.05 210.38V172.808H810.254ZM846.689 184.34C849.169 180.537 852.269 177.561 855.989 175.412C859.709 173.18 863.842 172.064 868.389 172.064V194.508H862.561C857.27 194.508 853.302 195.665 850.657 197.98C848.012 200.212 846.689 204.18 846.689 209.884V242H825.485V172.808H846.689V184.34ZM874.308 207.404C874.308 200.212 875.755 193.929 878.648 188.556C881.624 183.183 885.716 179.049 890.924 176.156C896.215 173.263 902.249 171.816 909.028 171.816C917.708 171.816 924.941 174.089 930.728 178.636C936.597 183.183 940.441 189.589 942.26 197.856H919.692C917.791 192.565 914.112 189.92 908.656 189.92C904.771 189.92 901.671 191.449 899.356 194.508C897.041 197.484 895.884 201.783 895.884 207.404C895.884 213.025 897.041 217.365 899.356 220.424C901.671 223.4 904.771 224.888 908.656 224.888C914.112 224.888 917.791 222.243 919.692 216.952H942.26C940.441 225.053 936.597 231.419 930.728 236.048C924.859 240.677 917.625 242.992 909.028 242.992C902.249 242.992 896.215 241.545 890.924 238.652C885.716 235.759 881.624 231.625 878.648 226.252C875.755 220.879 874.308 214.596 874.308 207.404ZM1018.83 206.288C1018.83 208.272 1018.7 210.339 1018.45 212.488H970.466C970.797 216.787 972.161 220.093 974.558 222.408C977.038 224.64 980.055 225.756 983.61 225.756C988.901 225.756 992.579 223.524 994.646 219.06H1017.21C1016.06 223.607 1013.95 227.699 1010.89 231.336C1007.91 234.973 1004.15 237.825 999.606 239.892C995.059 241.959 989.975 242.992 984.354 242.992C977.575 242.992 971.541 241.545 966.25 238.652C960.959 235.759 956.826 231.625 953.85 226.252C950.874 220.879 949.386 214.596 949.386 207.404C949.386 200.212 950.833 193.929 953.726 188.556C956.702 183.183 960.835 179.049 966.126 176.156C971.417 173.263 977.493 171.816 984.354 171.816C991.05 171.816 997.002 173.221 1002.21 176.032C1007.42 178.843 1011.47 182.852 1014.36 188.06C1017.34 193.268 1018.83 199.344 1018.83 206.288ZM997.126 200.708C997.126 197.071 995.886 194.177 993.406 192.028C990.926 189.879 987.826 188.804 984.106 188.804C980.551 188.804 977.534 189.837 975.054 191.904C972.657 193.971 971.169 196.905 970.59 200.708H997.126ZM637.156 362L607.892 323.56V362H586.688V274.952H607.892V313.144L636.908 274.952H661.832L628.104 317.608L663.072 362H637.156ZM683.813 285.616C680.093 285.616 677.034 284.541 674.637 282.392C672.322 280.16 671.165 277.432 671.165 274.208C671.165 270.901 672.322 268.173 674.637 266.024C677.034 263.792 680.093 262.676 683.813 262.676C687.45 262.676 690.426 263.792 692.741 266.024C695.138 268.173 696.337 270.901 696.337 274.208C696.337 277.432 695.138 280.16 692.741 282.392C690.426 284.541 687.45 285.616 683.813 285.616ZM694.353 292.808V362H673.149V292.808H694.353ZM736.007 291.816C740.885 291.816 745.142 292.808 748.779 294.792C752.499 296.776 755.351 299.38 757.335 302.604V292.808H778.539V361.876C778.539 368.241 777.258 373.987 774.695 379.112C772.215 384.32 768.371 388.453 763.163 391.512C758.038 394.571 751.631 396.1 743.943 396.1C733.693 396.1 725.385 393.661 719.019 388.784C712.654 383.989 709.017 377.459 708.107 369.192H729.063C729.725 371.837 731.295 373.904 733.775 375.392C736.255 376.963 739.314 377.748 742.951 377.748C747.333 377.748 750.805 376.467 753.367 373.904C756.013 371.424 757.335 367.415 757.335 361.876V352.08C755.269 355.304 752.417 357.949 748.779 360.016C745.142 362 740.885 362.992 736.007 362.992C730.303 362.992 725.137 361.545 720.507 358.652C715.878 355.676 712.199 351.501 709.471 346.128C706.826 340.672 705.503 334.389 705.503 327.28C705.503 320.171 706.826 313.929 709.471 308.556C712.199 303.183 715.878 299.049 720.507 296.156C725.137 293.263 730.303 291.816 736.007 291.816ZM757.335 327.404C757.335 322.113 755.847 317.939 752.871 314.88C749.978 311.821 746.423 310.292 742.207 310.292C737.991 310.292 734.395 311.821 731.419 314.88C728.526 317.856 727.079 321.989 727.079 327.28C727.079 332.571 728.526 336.787 731.419 339.928C734.395 342.987 737.991 344.516 742.207 344.516C746.423 344.516 749.978 342.987 752.871 339.928C755.847 336.869 757.335 332.695 757.335 327.404ZM789.663 327.28C789.663 320.171 790.986 313.929 793.631 308.556C796.359 303.183 800.038 299.049 804.667 296.156C809.297 293.263 814.463 291.816 820.167 291.816C825.045 291.816 829.302 292.808 832.939 294.792C836.659 296.776 839.511 299.38 841.495 302.604V292.808H862.699V362H841.495V352.204C839.429 355.428 836.535 358.032 832.815 360.016C829.178 362 824.921 362.992 820.043 362.992C814.422 362.992 809.297 361.545 804.667 358.652C800.038 355.676 796.359 351.501 793.631 346.128C790.986 340.672 789.663 334.389 789.663 327.28ZM841.495 327.404C841.495 322.113 840.007 317.939 837.031 314.88C834.138 311.821 830.583 310.292 826.367 310.292C822.151 310.292 818.555 311.821 815.579 314.88C812.686 317.856 811.239 321.989 811.239 327.28C811.239 332.571 812.686 336.787 815.579 339.928C818.555 342.987 822.151 344.516 826.367 344.516C830.583 344.516 834.138 342.987 837.031 339.928C840.007 336.869 841.495 332.695 841.495 327.404ZM899.244 270.24V362H878.04V270.24H899.244ZM925.274 285.616C921.554 285.616 918.495 284.541 916.098 282.392C913.783 280.16 912.626 277.432 912.626 274.208C912.626 270.901 913.783 268.173 916.098 266.024C918.495 263.792 921.554 262.676 925.274 262.676C928.911 262.676 931.887 263.792 934.202 266.024C936.599 268.173 937.798 270.901 937.798 274.208C937.798 277.432 936.599 280.16 934.202 282.392C931.887 284.541 928.911 285.616 925.274 285.616ZM935.814 292.808V362H914.61V292.808H935.814Z" fill="black"/>
</svg>
